<svg width="100" height="100" viewBox="0 0 100 100" xmlns="http://www.w3.org/2000/svg">
  <rect width="100" height="100" rx="8" fill="#0d1117"/>
  <rect x="28" y="28" width="44" height="44" rx="3" fill="#0097b8" stroke="#00d4ff" stroke-width="1.2"/>
  <rect x="34" y="34" width="32" height="32" rx="2" fill="#0a0a14" stroke="#00d4ff" stroke-width="0.8"/>
  <text x="50" y="54" font-family="Arial" font-size="10" fill="#00d4ff" text-anchor="middle">CPU</text>
  <line x1="34" y1="28" x2="34" y2="20" stroke="#00d4ff" stroke-width="1.2"/>
  <line x1="42" y1="28" x2="42" y2="20" stroke="#00d4ff" stroke-width="1.2"/>
  <line x1="50" y1="28" x2="50" y2="20" stroke="#00d4ff" stroke-width="1.2"/>
  <line x1="58" y1="28" x2="58" y2="20" stroke="#00d4ff" stroke-width="1.2"/>
  <line x1="66" y1="28" x2="66" y2="20" stroke="#00d4ff" stroke-width="1.2"/>
  <line x1="34" y1="72" x2="34" y2="80" stroke="#00d4ff" stroke-width="1.2"/>
  <line x1="42" y1="72" x2="42" y2="80" stroke="#00d4ff" stroke-width="1.2"/>
  <line x1="50" y1="72" x2="50" y2="80" stroke="#00d4ff" stroke-width="1.2"/>
  <line x1="58" y1="72" x2="58" y2="80" stroke="#00d4ff" stroke-width="1.2"/>
  <line x1="66" y1="72" x2="66" y2="80" stroke="#00d4ff" stroke-width="1.2"/>
  <line x1="28" y1="34" x2="20" y2="34" stroke="#00d4ff" stroke-width="1.2"/>
  <line x1="28" y1="42" x2="20" y2="42" stroke="#00d4ff" stroke-width="1.2"/>
  <line x1="28" y1="50" x2="20" y2="50" stroke="#00d4ff" stroke-width="1.2"/>
  <line x1="28" y1="58" x2="20" y2="58" stroke="#00d4ff" stroke-width="1.2"/>
  <line x1="28" y1="66" x2="20" y2="66" stroke="#00d4ff" stroke-width="1.2"/>
  <line x1="72" y1="34" x2="80" y2="34" stroke="#00d4ff" stroke-width="1.2"/>
  <line x1="72" y1="42" x2="80" y2="42" stroke="#00d4ff" stroke-width="1.2"/>
  <line x1="72" y1="50" x2="80" y2="50" stroke="#00d4ff" stroke-width="1.2"/>
  <line x1="72" y1="58" x2="80" y2="58" stroke="#00d4ff" stroke-width="1.2"/>
  <line x1="72" y1="66" x2="80" y2="66" stroke="#00d4ff" stroke-width="1.2"/>
</svg>
