<svg width="100" height="100" viewBox="0 0 100 100" xmlns="http://www.w3.org/2000/svg">
  <rect width="100" height="100" rx="8" fill="#0d1117"/>
  <rect x="8" y="32" width="76" height="36" rx="3" fill="#0097b8" stroke="#00d4ff" stroke-width="1.2"/>
  <circle cx="32" cy="50" r="12" fill="#0a0a14" stroke="#00d4ff" stroke-width="0.8"/>
  <circle cx="32" cy="50" r="5" fill="#0097b8"/>
  <line x1="32" y1="38" x2="32" y2="43" stroke="#00d4ff" stroke-width="1"/>
  <line x1="32" y1="57" x2="32" y2="62" stroke="#00d4ff" stroke-width="1"/>
  <line x1="20" y1="50" x2="25" y2="50" stroke="#00d4ff" stroke-width="1"/>
  <line x1="39" y1="50" x2="44" y2="50" stroke="#00d4ff" stroke-width="1"/>
  <circle cx="62" cy="50" r="12" fill="#0a0a14" stroke="#00d4ff" stroke-width="0.8"/>
  <circle cx="62" cy="50" r="5" fill="#0097b8"/>
  <line x1="62" y1="38" x2="62" y2="43" stroke="#00d4ff" stroke-width="1"/>
  <line x1="62" y1="57" x2="62" y2="62" stroke="#00d4ff" stroke-width="1"/>
  <line x1="50" y1="50" x2="55" y2="50" stroke="#00d4ff" stroke-width="1"/>
  <line x1="69" y1="50" x2="74" y2="50" stroke="#00d4ff" stroke-width="1"/>
  <rect x="18" y="68" width="56" height="6" rx="1" fill="#004a5e" stroke="#00d4ff" stroke-width="0.8"/>
  <line x1="26" y1="68" x2="26" y2="74" stroke="#00d4ff" stroke-width="0.8"/>
  <line x1="34" y1="68" x2="34" y2="74" stroke="#00d4ff" stroke-width="0.8"/>
  <line x1="42" y1="68" x2="42" y2="74" stroke="#00d4ff" stroke-width="0.8"/>
  <line x1="50" y1="68" x2="50" y2="74" stroke="#00d4ff" stroke-width="0.8"/>
  <line x1="58" y1="68" x2="58" y2="74" stroke="#00d4ff" stroke-width="0.8"/>
  <line x1="66" y1="68" x2="66" y2="74" stroke="#00d4ff" stroke-width="0.8"/>
</svg>
